<mxfile host="app.diagrams.net" modified="2023-11-26T07:47:00.775Z" agent="Mozilla/5.0 (Windows NT 10.0; Win64; x64) AppleWebKit/537.36 (KHTML, like Gecko) Chrome/119.0.0.0 Safari/537.36" version="22.1.4" etag="eGrcaOjQA1uIDG-eWraG" type="github">
  <diagram name="Page-1" id="Nqm3jb5Fw4Bfbbql8t85">
    <mxGraphModel>
      <root>
        <mxCell id="0" />
        <mxCell id="1" parent="0" />
      </root>
    </mxGraphModel>
  </diagram>
</mxfile>
